<svg version="1.1"
     xmlns="http://www.w3.org/2000/svg"
     x="0" y="0" viewBox="0 0 1000 1000" width="42px" height="42px" style="fill:white;">
  <path d="M606.2,521.9c-36.4,0-71,8.1-101.9,22.4c-9.2-85.2-40.3-140.2-58.6-165.9c-34.9-49.1-20.8-95.9-5.8-145.4c7.9-26,16-52.8,16-79.4C455.9,74.4,399.8,10,330.9,10S206,74.4,206,153.5c0,29.1,8.7,56.8,17.1,83.7c14.9,47.6,29,92.6-6.8,141c-42.2,57.1-63.9,138.7-61.1,229.6c0,1,3.3,99,22.1,194.3c21.9,110.9,54,164.8,98.3,164.8h111.6c22.1,0,43.7-18.5,58.4-37.9c42.5,37.9,98.8,61,160.6,61c131.7,0,238.8-105,238.8-234.1C845.1,626.9,737.9,521.9,606.2,521.9z M230.7,153.5c0-65.5,45-118.8,100.2-118.8c55.3,0,100.2,53.3,100.2,118.8c0,22.9-7.2,46.9-14.9,72.3c-3.8,12.7-7.8,25.8-10.9,39.3H257c-3-11.9-6.7-23.6-10.3-35.3C238.4,203.6,230.7,178.8,230.7,153.5z M400.4,329.4H262.7c1.7-13.4,1.2-26.6-0.7-39.6h138.8C399.1,302.8,398.8,316,400.4,329.4z M387.2,942.2H275.6c-29.3,0-55.6-51.4-74.1-144.9C183.1,704,179.9,608,179.9,607c-3.6-115.3,33.7-183.6,56.3-214.2c9.7-13.2,16.4-26.1,20.8-38.8h148.9c4.1,12.8,10.5,25.6,19.7,38.6c17.6,24.7,48,78.8,55.1,164.2c-68,41.3-113.3,115.1-113.3,199c0,59.6,22.9,114.1,60.5,155.5C414.9,929.6,398.6,942.2,387.2,942.2z M606.2,965.3c-118.1,0-214.1-93.9-214.1-209.3c0-115.4,96.1-209.3,214.1-209.3c118.1,0,214.1,93.9,214.1,209.3S724.3,965.3,606.2,965.3z"/><path d="M635.8,678.8c-23.6,0-42.8,19.2-42.8,42.8c0,23.6,19.2,42.8,42.8,42.8c23.6,0,42.8-19.2,42.8-42.8C678.6,698,659.4,678.8,635.8,678.8z M635.8,743.8c-12.2,0-22.2-10-22.2-22.2c0-12.2,10-22.2,22.2-22.2c12.2,0,22.2,10,22.2,22.2C658,733.8,648.1,743.8,635.8,743.8z"/><path d="M609,634.9c0-23.6-19.2-42.8-42.8-42.8c-23.6,0-42.8,19.2-42.8,42.8c0,23.6,19.2,42.8,42.8,42.8C589.8,677.7,609,658.5,609,634.9z M566.2,657.1c-12.2,0-22.2-10-22.2-22.2s10-22.2,22.2-22.2s22.2,10,22.2,22.2S578.5,657.1,566.2,657.1z"/><path d="M705.4,592.1c-23.6,0-42.8,19.2-42.8,42.8c0,23.6,19.2,42.8,42.8,42.8c23.6,0,42.8-19.2,42.8-42.8C748.2,611.3,729,592.1,705.4,592.1z M705.4,657.1c-12.2,0-22.2-10-22.2-22.2s10-22.2,22.2-22.2s22.2,10,22.2,22.2S717.6,657.1,705.4,657.1z"/>
</svg>
